<svg width="170" height="36" viewBox="0 0 170 36" fill="none" xmlns="http://www.w3.org/2000/svg">
<ellipse cx="17.8618" cy="17.5447" rx="17.8618" ry="17.5447" fill="url(#paint0_linear_1869_11410)"/>
<ellipse cx="17.8947" cy="17.5119" rx="16.2228" ry="15.9348" fill="black"/>
<path d="M19.805 12.2666C15.7257 12.2987 11.2664 15.3663 9.84492 19.1183C12.8672 16.9846 15.9004 18.5812 19.1754 18.9026C22.4504 19.2239 21.9478 18.9926 24.6173 19.002C26.0388 15.25 23.8842 12.2345 19.805 12.2666Z" fill="url(#paint1_linear_1869_11410)"/>
<path d="M14.6241 26.9022C10.6167 26.8849 8.46223 23.8695 9.81192 20.1671C13.8784 17.6551 16.5314 20.5217 24.3239 20.2295C22.9742 23.932 18.6314 26.9194 14.6241 26.9022Z" fill="url(#paint2_linear_1869_11410)"/>
<path d="M19.805 12.2666C15.7257 12.2987 11.2664 15.3663 9.84493 19.1183C12.8672 16.9846 15.9004 18.5812 19.1754 18.9026C22.4504 19.2239 21.9478 18.9926 24.6173 19.002C26.0388 15.25 23.8842 12.2345 19.805 12.2666Z" fill="url(#paint3_linear_1869_11410)"/>
<path d="M14.6241 26.9022C10.6167 26.8849 8.46222 23.8695 9.81191 20.1671C13.8784 17.6551 16.5314 20.5217 24.3239 20.2295C22.9742 23.932 18.6314 26.9194 14.6241 26.9022Z" fill="url(#paint4_linear_1869_11410)"/>
<path d="M23.8414 16.4496C25.4637 14.8561 24.979 13.8269 23.4297 10.1199" stroke="url(#paint5_linear_1869_11410)" stroke-width="1.34959"/>
<path d="M24.4323 12.0418C26.4156 12.5981 28.4968 11.4477 29.0808 9.47235L28.7076 9.36767C26.7243 8.81137 24.6431 9.96174 24.0591 11.9371L24.4323 12.0418Z" fill="url(#paint6_linear_1869_11410)"/>
<path d="M24.2473 10.892C24.5271 8.83135 23.0816 6.94751 21.0188 6.68433L20.9772 6.99092C20.6974 9.05157 22.1428 10.9354 24.2056 11.1986L24.2473 10.892Z" fill="url(#paint7_linear_1869_11410)"/>
<path d="M53.6532 14.0675L52.4555 12.4311H47.3776L46.5679 13.5445V19.5165L47.3776 20.613H52.4386L53.6532 18.9766L55.0872 20.09L53.3158 22.435H46.4835L44.7628 20.1407V12.9203L46.4835 10.626H53.3327L55.104 12.9709L53.6532 14.0675ZM61.842 16.8848L60.8298 16.1425H59.0416L58.3837 16.6486V22.435H56.6292V14.3711H58.3837V15.0291L59.0922 14.3711H61.4202L62.8542 15.4677L61.842 16.8848ZM70.2755 22.4687H66.1424L64.2529 21.0685V15.7713L66.1424 14.388H70.2755L72.1481 15.7713V21.0685L70.2755 22.4687ZM70.3767 16.6823L69.6682 16.1425H66.7328L66.0243 16.6823V20.1575L66.7328 20.6974H69.6682L70.3767 20.1575V16.6823ZM79.9563 22.435H76.0762L75.4183 21.912V26.1801H73.6638V14.388H75.4183V14.9953L76.0425 14.3711H79.9563L81.6771 15.8388V20.9673L79.9563 22.435ZM79.9226 16.7161L79.3153 16.1762H76.3293L75.4183 17.1041V20.0732L76.1269 20.613H79.3153L79.9226 20.1069V16.7161ZM89.4951 22.435H85.615L84.9571 21.912V26.1801H83.2026V14.388H84.9571V14.9953L85.5813 14.3711H89.4951L91.2158 15.8388V20.9673L89.4951 22.435ZM89.4613 16.7161L88.854 16.1762H85.868L84.9571 17.1041V20.0732L85.6656 20.613H88.854L89.4613 20.1069V16.7161ZM94.344 19.0441V20.1407L95.0525 20.6636H98.2409L99.4218 19.6683L100.586 21.0516L98.8651 22.435H94.4621L92.5727 21.0348V15.7713L94.4621 14.388H98.8651L100.603 15.8051V19.0441H94.344ZM98.8314 16.6317L98.2409 16.1425H95.0525L94.344 16.6823V17.3571H98.8314V16.6317ZM107.328 16.8848L106.316 16.1425H104.528L103.87 16.6486V22.435H102.115V14.3711H103.87V15.0291L104.578 14.3711H106.906L108.34 15.4677L107.328 16.8848ZM112.237 12.4311L111.461 13.5276V15.552H115.695V17.374H111.461V22.435H109.69V12.9035L111.36 10.626H117.011V12.4311H112.237ZM118.508 13.477V11.672H120.06V13.477H118.508ZM118.491 22.435V14.3711H120.026V22.435H118.491ZM127.539 22.435V16.6823L126.831 16.1425H124.233L123.524 16.6823V22.4181H121.753V14.388H123.524V14.9953L124.165 14.388H127.421L129.311 15.7713V22.435H127.539ZM136.921 22.4181V22.0132L136.482 22.435H132.399L130.662 20.9842V15.8051L132.399 14.388H136.465L136.921 14.7254V14.388H138.675V22.4181H136.921ZM136.921 17.0029L136.128 16.1425H133.04L132.433 16.6317V20.1744L133.024 20.6636H136.212L136.921 19.9382V17.0029ZM146.156 22.435V16.6823L145.447 16.1425H142.849L142.141 16.6823V22.4181H140.369V14.388H142.141V14.9953L142.782 14.388H146.037L147.927 15.7713V22.435H146.156ZM155.773 22.4687H151.353L149.447 21.0685V15.7713L151.353 14.3711H155.773L157.51 15.8051V17.5596H155.739V16.6317L155.149 16.1425H151.927L151.218 16.6823V20.1575L151.927 20.6974H155.149L155.739 20.1913V19.2803H157.51V21.0179L155.773 22.4687ZM160.802 19.0441V20.1407L161.511 20.6636H164.699L165.88 19.6683L167.044 21.0516L165.323 22.435H160.92L159.031 21.0348V15.7713L160.92 14.388H165.323L167.061 15.8051V19.0441H160.802ZM165.29 16.6317L164.699 16.1425H161.511L160.802 16.6823V17.3571H165.29V16.6317Z" fill="white"/>
<defs>
<linearGradient id="paint0_linear_1869_11410" x1="17.8618" y1="0" x2="17.8618" y2="35.0894" gradientUnits="userSpaceOnUse">
<stop stop-color="#13ECAB"/>
<stop offset="1" stop-color="#C834F7"/>
</linearGradient>
<linearGradient id="paint1_linear_1869_11410" x1="16.6379" y1="22.0778" x2="16.5772" y2="11.7491" gradientUnits="userSpaceOnUse">
<stop stop-color="#C834F7"/>
<stop offset="0.384725" stop-color="#718BD3"/>
<stop offset="0.848958" stop-color="#13ECAB"/>
</linearGradient>
<linearGradient id="paint2_linear_1869_11410" x1="14.6241" y1="26.9022" x2="14.7165" y2="20.166" gradientUnits="userSpaceOnUse">
<stop offset="0.0001" stop-color="#C833F7"/>
<stop offset="0.963542" stop-color="#7E7ED8"/>
</linearGradient>
<linearGradient id="paint3_linear_1869_11410" x1="16.6379" y1="22.0778" x2="16.5772" y2="11.7491" gradientUnits="userSpaceOnUse">
<stop stop-color="#C834F7"/>
<stop offset="0.384725" stop-color="#718BD3"/>
<stop offset="0.848958" stop-color="#13ECAB"/>
</linearGradient>
<linearGradient id="paint4_linear_1869_11410" x1="14.6241" y1="26.9022" x2="14.7165" y2="20.166" gradientUnits="userSpaceOnUse">
<stop offset="0.0001" stop-color="#C833F7"/>
<stop offset="0.963542" stop-color="#7E7ED8"/>
</linearGradient>
<linearGradient id="paint5_linear_1869_11410" x1="24.6265" y1="12.3679" x2="21.5692" y2="19.0554" gradientUnits="userSpaceOnUse">
<stop stop-color="#13ECAB"/>
<stop offset="0.343329" stop-color="#31CDB8"/>
<stop offset="0.487741" stop-color="#4DB1C4"/>
<stop offset="0.854972" stop-color="#817CDA"/>
</linearGradient>
<linearGradient id="paint6_linear_1869_11410" x1="26.7021" y1="10.2576" x2="23.26" y2="14.3351" gradientUnits="userSpaceOnUse">
<stop stop-color="#13ECAB"/>
<stop offset="1" stop-color="#7E7ED8"/>
</linearGradient>
<linearGradient id="paint7_linear_1869_11410" x1="22.1453" y1="8.8819" x2="26.6384" y2="11.7387" gradientUnits="userSpaceOnUse">
<stop stop-color="#13ECAB"/>
<stop offset="1" stop-color="#7E7ED8"/>
</linearGradient>
</defs>
</svg>
