<svg width="18" height="18" viewBox="0 0 18 18" fill="none" xmlns="http://www.w3.org/2000/svg">
<path d="M9.97056 5.43786L11.2662 6.7336C11.8614 7.32883 12.3336 8.0355 12.6557 8.81324C12.9779 9.59098 13.1437 10.4246 13.1437 11.2664C13.1437 12.1082 12.9779 12.9418 12.6557 13.7196C12.3336 14.4973 11.8614 15.204 11.2662 15.7992L10.942 16.1225C9.73999 17.3246 8.10966 18 6.4097 18C4.70974 18 3.07941 17.3246 1.87736 16.1225C0.675306 14.9203 1.26657e-08 13.2898 0 11.5896C-1.26657e-08 9.88952 0.675306 8.25902 1.87736 7.05685L3.17297 8.35259C2.74479 8.77707 2.40467 9.28195 2.17212 9.83825C1.93958 10.3945 1.81919 10.9913 1.81787 11.5943C1.81655 12.1972 1.93432 12.7945 2.16443 13.3518C2.39454 13.9091 2.73245 14.4155 3.15876 14.8418C3.58507 15.2682 4.09138 15.6061 4.64864 15.8363C5.20589 16.0664 5.80311 16.1842 6.406 16.1829C7.0089 16.1815 7.60559 16.0611 8.16183 15.8286C8.71807 15.596 9.22291 15.2558 9.64735 14.8276L9.97148 14.5035C10.8297 13.6449 11.3119 12.4805 11.3119 11.2664C11.3119 10.0523 10.8297 8.88795 9.97148 8.02934L8.67587 6.7336L9.97148 5.43877L9.97056 5.43786ZM16.1217 10.9422L14.827 9.64741C15.2552 9.22293 15.5953 8.71805 15.8279 8.16175C16.0604 7.60545 16.1808 7.00869 16.1821 6.40574C16.1835 5.80278 16.0657 5.20551 15.8356 4.6482C15.6055 4.09089 15.2676 3.58452 14.8412 3.15816C14.4149 2.73181 13.9086 2.39387 13.3514 2.16373C12.7941 1.9336 12.1969 1.81582 11.594 1.81714C10.9911 1.81846 10.3944 1.93886 9.83817 2.17143C9.28193 2.404 8.77709 2.74416 8.35265 3.17237L8.02852 3.49654C7.17026 4.35515 6.68811 5.51952 6.68811 6.7336C6.68811 7.94768 7.17026 9.11205 8.02852 9.97066L9.32413 11.2664L8.02852 12.5612L6.73383 11.2664C6.13859 10.6712 5.66643 9.9645 5.34428 9.18676C5.02214 8.40902 4.85634 7.57543 4.85634 6.7336C4.85634 5.89177 5.02214 5.05818 5.34428 4.28044C5.66643 3.5027 6.13859 2.79603 6.73383 2.2008L7.05796 1.87755C8.26001 0.675375 9.89034 0 11.5903 0C13.2903 0 14.9206 0.675375 16.1226 1.87755C17.3247 3.07972 18 4.71022 18 6.41035C18 8.11048 17.3247 9.74098 16.1226 10.9432L16.1217 10.9422Z" fill="white" fill-opacity="0.5"/>
</svg>
