<svg width="11" height="11" viewBox="0 0 11 11" fill="none" xmlns="http://www.w3.org/2000/svg">
<path d="M6.09312 3.32314L6.88488 4.11498C7.24864 4.47873 7.53718 4.91058 7.73405 5.38587C7.93091 5.86116 8.03224 6.37057 8.03224 6.88502C8.03224 7.39948 7.93091 7.90889 7.73405 8.38418C7.53718 8.85946 7.24864 9.29131 6.88488 9.65507L6.6868 9.85261C5.95221 10.5873 4.9559 11 3.91704 11C2.87818 11 1.88186 10.5873 1.14727 9.85261C0.412687 9.11795 7.74013e-09 8.12153 0 7.08256C-7.74013e-09 6.04359 0.412687 5.04718 1.14727 4.31252L1.93903 5.10436C1.67737 5.36377 1.46952 5.67231 1.32741 6.01226C1.1853 6.35222 1.11173 6.71691 1.11092 7.08538C1.11011 7.45385 1.18209 7.81886 1.32271 8.15944C1.46333 8.50001 1.66983 8.80946 1.93035 9.07001C2.19088 9.33056 2.50029 9.53708 2.84084 9.67772C3.18138 9.81835 3.54634 9.89033 3.91478 9.88953C4.28321 9.88872 4.64786 9.81514 4.98779 9.67302C5.32771 9.53089 5.63622 9.32302 5.8956 9.06133L6.09368 8.86323C6.61818 8.33852 6.91282 7.62696 6.91282 6.88502C6.91282 6.14309 6.61818 5.43153 6.09368 4.90682L5.30192 4.11498L6.09368 3.3237L6.09312 3.32314ZM9.85217 6.68692L9.06097 5.89564C9.32263 5.63623 9.53048 5.32769 9.67259 4.98773C9.8147 4.64777 9.88827 4.28309 9.88908 3.91462C9.88989 3.54615 9.81791 3.18114 9.67729 2.84056C9.53667 2.49999 9.33017 2.19054 9.06965 1.92999C8.80912 1.66944 8.49971 1.46292 8.15917 1.32228C7.81862 1.18165 7.45366 1.10967 7.08522 1.11047C6.71679 1.11128 6.35214 1.18486 6.01221 1.32698C5.67229 1.46911 5.36378 1.67698 5.1044 1.93867L4.90632 2.13677C4.38182 2.66148 4.08718 3.37304 4.08718 4.11498C4.08718 4.85691 4.38182 5.56847 4.90632 6.09318L5.69808 6.88502L4.90632 7.67631L4.11512 6.88502C3.75136 6.52127 3.46282 6.08942 3.26595 5.61413C3.06909 5.13884 2.96776 4.62943 2.96776 4.11498C2.96776 3.60052 3.06909 3.09111 3.26595 2.61582C3.46282 2.14054 3.75136 1.70869 4.11512 1.34493L4.3132 1.14739C5.04778 0.412729 6.0441 0 7.08296 0C8.12183 0 9.11814 0.412729 9.85273 1.14739C10.5873 1.88205 11 2.87847 11 3.91744C11 4.95641 10.5873 5.95282 9.85273 6.68748L9.85217 6.68692Z" fill="white" fill-opacity="0.5"/>
</svg>
