<svg width="12" height="11" viewBox="0 0 12 11" fill="none" xmlns="http://www.w3.org/2000/svg">
<path d="M6.62971 6.10352e-05C4.91934 6.10352e-05 3.29563 0.826332 2.28674 2.21054L3.05093 2.76722C3.8824 1.62645 5.22029 0.945294 6.62971 0.945294C9.06945 0.945452 11.0548 2.93046 11.0548 5.37035C11.0548 7.81025 9.06945 9.79525 6.62971 9.79525C4.56261 9.79525 2.82231 8.37023 2.33858 6.45109L3.15965 7.09112L3.74091 6.34552L1.63868 4.707L0 6.80924L0.745598 7.39049L1.39335 6.55934C1.93616 8.95007 4.07684 10.7406 6.62955 10.7406C9.59067 10.7406 12 8.33147 12 5.37035C12 2.40923 9.59083 6.10352e-05 6.62971 6.10352e-05Z" fill="white"/>
</svg>
