<svg width="101" height="31" viewBox="0 0 101 31" fill="none" xmlns="http://www.w3.org/2000/svg">
<path d="M48.8458 12.6407L47.7924 11.2014H43.3263L42.6141 12.1807V17.4331L43.3263 18.3976H47.7775L48.8458 16.9583L50.107 17.9376L48.5491 20H42.54L41.0265 17.9821V11.6317L42.54 9.61385H48.5639L50.1218 11.6762L48.8458 12.6407ZM56.048 15.1185L55.1577 14.4657H53.585L53.0063 14.9108V20H51.4632V12.9077H53.0063V13.4864L53.6295 12.9077H55.677L56.9382 13.8722L56.048 15.1185ZM63.4654 20.0297H59.8302L58.1684 18.7982V14.1392L59.8302 12.9226H63.4654L65.1123 14.1392V18.7982L63.4654 20.0297ZM63.5544 14.9405L62.9312 14.4657H60.3495L59.7264 14.9405V17.997L60.3495 18.4718H62.9312L63.5544 17.997V14.9405ZM71.9798 20H68.5672L67.9886 19.54V23.2939H66.4455V12.9226H67.9886V13.4567L68.5376 12.9077H71.9798L73.4932 14.1986V18.7092L71.9798 20ZM71.9501 14.9701L71.416 14.4953H68.7898L67.9886 15.3114V17.9228L68.6117 18.3976H71.416L71.9501 17.9524V14.9701ZM80.3693 20H76.9567L76.378 19.54V23.2939H74.835V12.9226H76.378V13.4567L76.927 12.9077H80.3693L81.8827 14.1986V18.7092L80.3693 20ZM80.3396 14.9701L79.8055 14.4953H77.1793L76.378 15.3114V17.9228L77.0012 18.3976H79.8055L80.3396 17.9524V14.9701ZM84.634 17.0177V17.9821L85.2572 18.4421H88.0614L89.1 17.5667L90.1238 18.7833L88.6104 20H84.7379L83.0761 18.7685V14.1392L84.7379 12.9226H88.6104L90.1386 14.1689V17.0177H84.634ZM88.5807 14.8959L88.0614 14.4657H85.2572L84.634 14.9405V15.534H88.5807V14.8959ZM96.0538 15.1185L95.1635 14.4657H93.5908L93.0121 14.9108V20H91.469V12.9077H93.0121V13.4864L93.6353 12.9077H95.6828L96.944 13.8722L96.0538 15.1185Z" fill="white"/>
<circle cx="15.4308" cy="15.4308" r="15.4308" fill="url(#paint0_linear_15:297)"/>
<ellipse cx="15.4597" cy="15.402" rx="14.0149" ry="14.0149" fill="black"/>
<path d="M17.1246 10.7887C13.6005 10.827 9.74047 13.5332 8.50298 16.8331C11.1193 14.951 13.7356 16.3462 16.564 16.6205C19.3924 16.8947 18.9588 16.6927 21.2649 16.6943C22.5024 13.3944 20.6487 10.7504 17.1246 10.7887Z" fill="url(#paint1_linear_15:297)"/>
<path d="M12.6234 23.661C9.16143 23.6558 7.30776 21.0117 8.48312 17.7554C12.0026 15.5382 14.2873 18.0503 21.02 17.7743C19.8447 21.0307 16.0854 23.6662 12.6234 23.661Z" fill="url(#paint2_linear_15:297)"/>
<path d="M17.1247 10.7887C13.6006 10.827 9.74057 13.5332 8.50308 16.8331C11.1194 14.951 13.7357 16.3462 16.5641 16.6205C19.3925 16.8947 18.9588 16.6927 21.265 16.6943C22.5024 13.3944 20.6488 10.7504 17.1247 10.7887Z" fill="url(#paint3_linear_15:297)"/>
<path d="M12.6235 23.661C9.16149 23.6558 7.30782 21.0117 8.48319 17.7554C12.0026 15.5382 14.2873 18.0503 21.0201 17.7743C19.8447 21.0307 16.0854 23.6662 12.6235 23.661Z" fill="url(#paint4_linear_15:297)"/>
<path d="M20.5984 14.4677C21.9999 13.0663 21.5811 12.1611 20.2427 8.9007" stroke="url(#paint5_linear_15:297)" stroke-width="1.18699"/>
<path d="M21.0862 10.5743C22.8173 11.0728 24.6247 10.0736 25.1232 8.34247V8.34247L24.8219 8.25571C23.0908 7.75723 21.2834 8.75645 20.7849 10.4875V10.4875L21.0862 10.5743Z" fill="url(#paint6_linear_15:297)"/>
<path d="M20.9588 9.53856C21.1939 7.75254 19.9366 6.11412 18.1506 5.87905V5.87905L18.1097 6.18989C17.8746 7.97591 19.1319 9.61433 20.9179 9.84941V9.84941L20.9588 9.53856Z" fill="url(#paint7_linear_15:297)"/>
<defs>
<linearGradient id="paint0_linear_15:297" x1="15.4308" y1="0" x2="15.4308" y2="30.8617" gradientUnits="userSpaceOnUse">
<stop stop-color="#13ECAB"/>
<stop offset="1" stop-color="#C834F7"/>
</linearGradient>
<linearGradient id="paint1_linear_15:297" x1="14.3639" y1="19.4165" x2="14.2836" y2="10.3425" gradientUnits="userSpaceOnUse">
<stop stop-color="#C834F7"/>
<stop offset="0.384725" stop-color="#718BD3"/>
<stop offset="0.848958" stop-color="#13ECAB"/>
</linearGradient>
<linearGradient id="paint2_linear_15:297" x1="12.6234" y1="23.661" x2="12.689" y2="17.742" gradientUnits="userSpaceOnUse">
<stop offset="0.0001" stop-color="#C833F7"/>
<stop offset="0.963542" stop-color="#7E7ED8"/>
</linearGradient>
<linearGradient id="paint3_linear_15:297" x1="14.364" y1="19.4164" x2="14.2837" y2="10.3425" gradientUnits="userSpaceOnUse">
<stop stop-color="#C834F7"/>
<stop offset="0.384725" stop-color="#718BD3"/>
<stop offset="0.848958" stop-color="#13ECAB"/>
</linearGradient>
<linearGradient id="paint4_linear_15:297" x1="12.6235" y1="23.661" x2="12.6891" y2="17.742" gradientUnits="userSpaceOnUse">
<stop offset="0.0001" stop-color="#C833F7"/>
<stop offset="0.963542" stop-color="#7E7ED8"/>
</linearGradient>
<linearGradient id="paint5_linear_15:297" x1="21.2766" y1="10.8778" x2="18.5562" y2="16.7228" gradientUnits="userSpaceOnUse">
<stop stop-color="#13ECAB"/>
<stop offset="0.343329" stop-color="#31CDB8"/>
<stop offset="0.487741" stop-color="#4DB1C4"/>
<stop offset="0.854972" stop-color="#817CDA"/>
</linearGradient>
<linearGradient id="paint6_linear_15:297" x1="23.0669" y1="9.0232" x2="20.0503" y2="12.5447" gradientUnits="userSpaceOnUse">
<stop stop-color="#13ECAB"/>
<stop offset="1" stop-color="#7E7ED8"/>
</linearGradient>
<linearGradient id="paint7_linear_15:297" x1="19.13" y1="7.81102" x2="23.0615" y2="10.2695" gradientUnits="userSpaceOnUse">
<stop stop-color="#13ECAB"/>
<stop offset="1" stop-color="#7E7ED8"/>
</linearGradient>
</defs>
</svg>
