<svg width="146" height="31" viewBox="0 0 146 31" fill="none" xmlns="http://www.w3.org/2000/svg">
<path d="M45.4242 13.9494L44.3707 12.5102H39.9047L39.1925 13.4894V18.7419L39.9047 19.7063H44.3559L45.4242 18.2671L46.6854 19.2463L45.1274 21.3087H39.1183L37.6049 19.2908V12.9404L39.1183 10.9226H45.1423L46.7002 12.985L45.4242 13.9494ZM52.6263 16.4272L51.7361 15.7744H50.1633L49.5847 16.2195V21.3087H48.0416V14.2165H49.5847V14.7951L50.2078 14.2165H52.2554L53.5166 15.1809L52.6263 16.4272ZM60.0437 21.3384H56.4086L54.7468 20.1069V15.448L56.4086 14.2313H60.0437L61.6907 15.448V20.1069L60.0437 21.3384ZM60.1328 16.2492L59.5096 15.7744H56.9279L56.3047 16.2492V19.3057L56.9279 19.7805H59.5096L60.1328 19.3057V16.2492ZM68.5582 21.3087H65.1456L64.5669 20.8488V24.6026H63.0238V14.2313H64.5669V14.7654L65.1159 14.2165H68.5582L70.0716 15.5073V20.0179L68.5582 21.3087ZM68.5285 16.2789L67.9943 15.8041H65.3681L64.5669 16.6201V19.2315L65.1901 19.7063H67.9943L68.5285 19.2612V16.2789ZM76.9476 21.3087H73.5351L72.9564 20.8488V24.6026H71.4133V14.2313H72.9564V14.7654L73.5054 14.2165H76.9476L78.4611 15.5073V20.0179L76.9476 21.3087ZM76.918 16.2789L76.3838 15.8041H73.7576L72.9564 16.6201V19.2315L73.5796 19.7063H76.3838L76.918 19.2612V16.2789ZM81.2123 18.3264V19.2908L81.8355 19.7508H84.6398L85.6784 18.8754L86.7022 20.0921L85.1888 21.3087H81.3162L79.6544 20.0772V15.448L81.3162 14.2313H85.1888L86.717 15.4776V18.3264H81.2123ZM85.1591 16.2047L84.6398 15.7744H81.8355L81.2123 16.2492V16.8427H85.1591V16.2047ZM92.6321 16.4272L91.7419 15.7744H90.1691L89.5905 16.2195V21.3087H88.0474V14.2165H89.5905V14.7951L90.2136 14.2165H92.2612L93.5224 15.1809L92.6321 16.4272ZM96.9496 12.5102L96.267 13.4746V15.2551H99.9912V16.8575H96.267V21.3087H94.7091V12.9256L96.178 10.9226H101.149V12.5102H96.9496ZM102.465 13.4301V11.8425H103.83V13.4301H102.465ZM102.45 21.3087V14.2165H103.8V21.3087H102.45ZM110.408 21.3087V16.2492L109.785 15.7744H107.5L106.877 16.2492V21.2939H105.319V14.2313H106.877V14.7654L107.441 14.2313H110.304L111.966 15.448V21.3087H110.408ZM118.659 21.2939V20.9378L118.273 21.3087H114.683L113.154 20.0327V15.4776L114.683 14.2313H118.258L118.659 14.528V14.2313H120.202V21.2939H118.659ZM118.659 16.5311L117.962 15.7744H115.246L114.712 16.2047V19.3205L115.232 19.7508H118.036L118.659 19.1128V16.5311ZM126.781 21.3087V16.2492L126.158 15.7744H123.873L123.25 16.2492V21.2939H121.692V14.2313H123.25V14.7654L123.814 14.2313H126.678L128.339 15.448V21.3087H126.781ZM135.24 21.3384H131.353L129.676 20.1069V15.448L131.353 14.2165H135.24L136.768 15.4776V17.0207H135.21V16.2047L134.691 15.7744H131.857L131.234 16.2492V19.3057L131.857 19.7805H134.691L135.21 19.3353V18.5341H136.768V20.0624L135.24 21.3384ZM139.663 18.3264V19.2908L140.287 19.7508H143.091L144.129 18.8754L145.153 20.0921L143.64 21.3087H139.767L138.105 20.0772V15.448L139.767 14.2313H143.64L145.168 15.4776V18.3264H139.663ZM143.61 16.2047L143.091 15.7744H140.287L139.663 16.2492V16.8427H143.61V16.2047Z" fill="white"/>
<circle cx="15.4308" cy="15.4308" r="15.4308" fill="url(#paint0_linear_102_493)"/>
<ellipse cx="15.4597" cy="15.4019" rx="14.0149" ry="14.0149" fill="black"/>
<path d="M17.1246 10.7887C13.6005 10.827 9.7405 13.5332 8.50301 16.8331C11.1193 14.951 13.7356 16.3462 16.564 16.6205C19.3924 16.8947 18.9588 16.6927 21.2649 16.6943C22.5024 13.3944 20.6487 10.7504 17.1246 10.7887Z" fill="url(#paint1_linear_102_493)"/>
<path d="M12.6235 23.6609C9.16155 23.6556 7.30789 21.0116 8.48325 17.7553C12.0027 15.5381 14.2874 18.0502 21.0202 17.7742C19.8448 21.0306 16.0855 23.6661 12.6235 23.6609Z" fill="url(#paint2_linear_102_493)"/>
<path d="M17.1249 10.7887C13.6008 10.827 9.74075 13.5332 8.50327 16.8331C11.1195 14.951 13.7359 16.3462 16.5643 16.6205C19.3926 16.8947 18.959 16.6927 21.2651 16.6943C22.5026 13.3944 20.649 10.7504 17.1249 10.7887Z" fill="url(#paint3_linear_102_493)"/>
<path d="M12.6235 23.6609C9.16155 23.6556 7.30789 21.0116 8.48325 17.7553C12.0027 15.5381 14.2874 18.0502 21.0202 17.7742C19.8448 21.0306 16.0855 23.6661 12.6235 23.6609Z" fill="url(#paint4_linear_102_493)"/>
<path d="M20.5986 14.4676C22.0001 13.0661 21.5814 12.161 20.2429 8.90057" stroke="url(#paint5_linear_102_493)" stroke-width="1.18699"/>
<path d="M21.0863 10.5743C22.8174 11.0728 24.6248 10.0736 25.1233 8.34247L24.822 8.25571C23.0909 7.75723 21.2835 8.75645 20.785 10.4875L21.0863 10.5743Z" fill="url(#paint6_linear_102_493)"/>
<path d="M20.9589 9.5385C21.194 7.75248 19.9367 6.11406 18.1506 5.87898L18.1097 6.18983C17.8747 7.97585 19.1319 9.61427 20.918 9.84935L20.9589 9.5385Z" fill="url(#paint7_linear_102_493)"/>
<defs>
<linearGradient id="paint0_linear_102_493" x1="15.4308" y1="0" x2="15.4308" y2="30.8617" gradientUnits="userSpaceOnUse">
<stop stop-color="#13ECAB"/>
<stop offset="1" stop-color="#C834F7"/>
</linearGradient>
<linearGradient id="paint1_linear_102_493" x1="14.3639" y1="19.4165" x2="14.2836" y2="10.3425" gradientUnits="userSpaceOnUse">
<stop stop-color="#C834F7"/>
<stop offset="0.384725" stop-color="#718BD3"/>
<stop offset="0.848958" stop-color="#13ECAB"/>
</linearGradient>
<linearGradient id="paint2_linear_102_493" x1="12.6236" y1="23.6609" x2="12.6891" y2="17.7419" gradientUnits="userSpaceOnUse">
<stop offset="0.0001" stop-color="#C833F7"/>
<stop offset="0.963542" stop-color="#7E7ED8"/>
</linearGradient>
<linearGradient id="paint3_linear_102_493" x1="14.3641" y1="19.4164" x2="14.2839" y2="10.3425" gradientUnits="userSpaceOnUse">
<stop stop-color="#C834F7"/>
<stop offset="0.384725" stop-color="#718BD3"/>
<stop offset="0.848958" stop-color="#13ECAB"/>
</linearGradient>
<linearGradient id="paint4_linear_102_493" x1="12.6236" y1="23.6609" x2="12.6891" y2="17.7419" gradientUnits="userSpaceOnUse">
<stop offset="0.0001" stop-color="#C833F7"/>
<stop offset="0.963542" stop-color="#7E7ED8"/>
</linearGradient>
<linearGradient id="paint5_linear_102_493" x1="21.2769" y1="10.8777" x2="18.5564" y2="16.7227" gradientUnits="userSpaceOnUse">
<stop stop-color="#13ECAB"/>
<stop offset="0.343329" stop-color="#31CDB8"/>
<stop offset="0.487741" stop-color="#4DB1C4"/>
<stop offset="0.854972" stop-color="#817CDA"/>
</linearGradient>
<linearGradient id="paint6_linear_102_493" x1="23.067" y1="9.0232" x2="20.0504" y2="12.5447" gradientUnits="userSpaceOnUse">
<stop stop-color="#13ECAB"/>
<stop offset="1" stop-color="#7E7ED8"/>
</linearGradient>
<linearGradient id="paint7_linear_102_493" x1="19.1301" y1="7.81096" x2="23.0616" y2="10.2694" gradientUnits="userSpaceOnUse">
<stop stop-color="#13ECAB"/>
<stop offset="1" stop-color="#7E7ED8"/>
</linearGradient>
</defs>
</svg>
