<svg width="18" height="21" viewBox="0 0 18 21" fill="none" xmlns="http://www.w3.org/2000/svg">
<path d="M9.32592 0.388105C9.73272 -0.0186913 10.3923 -0.0186913 10.7991 0.388105L13.9241 3.51311C14.3309 3.9199 14.3309 4.57945 13.9241 4.98624L10.7991 8.11124C10.3923 8.51804 9.73272 8.51804 9.32592 8.11124C8.91912 7.70445 8.91912 7.0449 9.32592 6.63811L10.6727 5.29134H9.02082C5.32529 5.29134 2.24999 8.36664 2.24999 12.0622C2.24999 15.7577 5.32529 18.833 9.02082 18.833C12.7164 18.833 15.7917 15.7577 15.7917 12.0622C15.7917 11.4869 16.258 11.0205 16.8333 11.0205C17.4086 11.0205 17.875 11.4869 17.875 12.0622C17.875 16.9083 13.867 20.9163 9.02082 20.9163C4.17469 20.9163 0.166656 16.9083 0.166656 12.0622C0.166656 7.21605 4.17469 3.20801 9.02082 3.20801H10.6727L9.32592 1.86124C8.91912 1.45445 8.91912 0.794901 9.32592 0.388105Z" fill="white"/>
</svg>
