<svg width="24" height="24" viewBox="0 0 24 24" fill="none" xmlns="http://www.w3.org/2000/svg">
<path d="M19.168 17.2915H21.0846V19.2082H1.91797V17.2915H3.83464V10.5832C3.83464 8.54984 4.64237 6.5998 6.08015 5.16202C7.51793 3.72424 9.46798 2.9165 11.5013 2.9165C13.5346 2.9165 15.4847 3.72424 16.9225 5.16202C18.3602 6.5998 19.168 8.54984 19.168 10.5832V17.2915ZM8.6263 21.1248H14.3763V23.0415H8.6263V21.1248Z" fill="#B8BDDF"/>
<path d="M18 11C15.2385 11 13 8.7615 13 6C13 3.2385 15.2385 1 18 1C20.7615 1 23 3.2385 23 6C23 8.7615 20.7615 11 18 11ZM17.5 7.5V8.5H18.5V7.5H17.5ZM17.5 3.5V6.5H18.5V3.5H17.5Z" fill="#FC5744"/>
</svg>
