<svg width="9" height="12" viewBox="0 0 9 12" fill="none" xmlns="http://www.w3.org/2000/svg">
<path d="M3.95412 5.46831C4.04816 5.56095 4.15962 5.63405 4.28206 5.6834C4.4045 5.73275 4.53551 5.75736 4.66751 5.75583C4.79951 5.75429 4.9299 5.72664 5.05116 5.67446C5.17243 5.62227 5.28215 5.5466 5.37402 5.4518L8.33894 2.41712C8.53035 2.22658 8.63822 1.96781 8.63883 1.69773C8.63944 1.42765 8.53274 1.16839 8.3422 0.976986C8.15166 0.78558 7.89288 0.677707 7.6228 0.677097C7.35273 0.676486 7.09347 0.783187 6.90206 0.973729L4.63942 3.34019L2.32237 1.02698C2.22833 0.934335 2.11687 0.861232 1.99443 0.811883C1.87198 0.762534 1.74098 0.737916 1.60898 0.739451C1.47698 0.740986 1.34658 0.768643 1.22532 0.820825C1.10406 0.873007 0.994335 0.948682 0.902468 1.04348C0.809826 1.13753 0.736723 1.24899 0.687375 1.37143C0.638026 1.49387 0.613409 1.62487 0.614943 1.75688C0.616478 1.88888 0.644135 2.01927 0.696317 2.14053C0.748499 2.26179 0.824174 2.37152 0.918977 2.46339L3.95412 5.46831ZM6.96647 6.51335L4.70337 8.83982L2.38678 6.5666C2.29273 6.47396 2.18128 6.40086 2.05883 6.35151C1.93639 6.30216 1.80539 6.27754 1.67339 6.27908C1.54139 6.28061 1.41099 6.30827 1.28973 6.36045C1.16847 6.41263 1.05874 6.48831 0.966876 6.58311C0.874235 6.67716 0.801132 6.78862 0.751783 6.91106C0.702434 7.0335 0.677817 7.1645 0.679352 7.2965C0.680886 7.4285 0.708543 7.5589 0.760725 7.68016C0.812907 7.80142 0.888582 7.91115 0.983385 8.00301L4.01806 10.9679C4.11211 11.0606 4.22357 11.1337 4.34601 11.183C4.46845 11.2324 4.59945 11.257 4.73145 11.2555C4.86345 11.2539 4.99385 11.2263 5.11511 11.1741C5.23637 11.1219 5.3461 11.0462 5.43796 10.9514L8.40288 7.91675C8.58899 7.72627 8.6918 7.46966 8.6887 7.20338C8.6856 6.93709 8.57685 6.68295 8.38637 6.49685C8.19589 6.31074 7.93929 6.20793 7.673 6.21103C7.40672 6.21412 7.15257 6.32287 6.96647 6.51335Z" fill="white"/>
</svg>
