<svg width="9" height="12" viewBox="0 0 9 12" fill="none" xmlns="http://www.w3.org/2000/svg">
<path d="M5.38031 6.54C5.28735 6.44627 5.17675 6.37188 5.05489 6.32111C4.93303 6.27034 4.80232 6.2442 4.67031 6.2442C4.5383 6.2442 4.40759 6.27034 4.28573 6.32111C4.16387 6.37188 4.05327 6.44627 3.96031 6.54L0.96031 9.54C0.766702 9.7283 0.655827 9.98581 0.652076 10.2559C0.648325 10.5259 0.752006 10.7864 0.94031 10.98C1.12861 11.1736 1.38612 11.2845 1.65617 11.2882C1.92622 11.292 2.1867 11.1883 2.38031 11L4.67031 8.66L6.96031 11C7.05327 11.0937 7.16387 11.1681 7.28573 11.2189C7.40759 11.2697 7.5383 11.2958 7.67031 11.2958C7.80232 11.2958 7.93303 11.2697 8.05489 11.2189C8.17675 11.1681 8.28735 11.0937 8.38031 11C8.47404 10.907 8.54843 10.7964 8.5992 10.6746C8.64997 10.5527 8.67611 10.422 8.67611 10.29C8.67611 10.158 8.64997 10.0273 8.5992 9.90542C8.54843 9.78356 8.47404 9.67296 8.38031 9.58L5.38031 6.54ZM2.38031 5.46L4.67031 3.16L6.96031 5.46C7.05327 5.55373 7.16387 5.62812 7.28573 5.67889C7.40759 5.72966 7.5383 5.7558 7.67031 5.7558C7.80232 5.7558 7.93303 5.72966 8.05489 5.67889C8.17675 5.62812 8.28735 5.55373 8.38031 5.46C8.47404 5.36704 8.54843 5.25644 8.5992 5.13458C8.64997 5.01272 8.67611 4.88201 8.67611 4.75C8.67611 4.61799 8.64997 4.48728 8.5992 4.36542C8.54843 4.24356 8.47404 4.13296 8.38031 4.04L5.38031 1.04C5.28735 0.946272 5.17675 0.871877 5.05489 0.821109C4.93303 0.77034 4.80232 0.744202 4.67031 0.744202C4.5383 0.744202 4.40759 0.77034 4.28573 0.821109C4.16387 0.871877 4.05327 0.946272 3.96031 1.04L0.96031 4.04C0.772006 4.2283 0.666218 4.4837 0.666218 4.75C0.666218 5.0163 0.772006 5.2717 0.96031 5.46C1.14861 5.6483 1.40401 5.75409 1.67031 5.75409C1.93661 5.75409 2.19201 5.6483 2.38031 5.46V5.46Z" fill="white"/>
</svg>
