<svg width="16" height="24" viewBox="0 0 16 24" fill="none" xmlns="http://www.w3.org/2000/svg">
<g opacity="0.5">
<path d="M2.45749 16.2699C2.45857 16.1102 2.52305 15.9575 2.63673 15.8453L6.27402 12.257C6.51076 12.0234 6.89201 12.026 7.12557 12.2627C7.35912 12.4995 7.35654 12.8807 7.1198 13.1143L4.51739 15.6817L11.4936 15.7289C11.8262 15.7312 12.0939 16.0026 12.0917 16.3351C12.0894 16.6677 11.818 16.9354 11.4855 16.9332L4.50924 16.886L7.07665 19.4884C7.31021 19.7251 7.30763 20.1064 7.07089 20.3399C6.83414 20.5735 6.45289 20.5709 6.21934 20.3342L2.63097 16.6969C2.51881 16.5832 2.45641 16.4296 2.45749 16.2699Z" fill="white"/>
</g>
<g opacity="0.5">
<path d="M3.12057 7.24207C3.12283 6.90952 3.39424 6.64176 3.72679 6.64401L10.703 6.69123L8.13561 4.08882C7.90205 3.85208 7.90463 3.47083 8.14138 3.23727C8.37812 3.00372 8.75937 3.0063 8.99293 3.24304L12.5813 6.88032C12.8149 7.11706 12.8123 7.49831 12.5755 7.73187L8.93825 11.3202C8.70151 11.5538 8.32025 11.5512 8.0867 11.3145C7.85314 11.0777 7.85572 10.6965 8.09246 10.4629L10.6949 7.89551L3.71864 7.84828C3.38608 7.84603 3.11832 7.57462 3.12057 7.24207Z" fill="white"/>
</g>
</svg>
