<svg width="34" height="27" viewBox="0 0 34 27" fill="none" xmlns="http://www.w3.org/2000/svg">
<path d="M29.8213 6.72274C29.8349 7.01578 29.8418 7.31051 29.8418 7.60695C29.8418 16.6109 22.9912 27 10.4487 27C6.59837 27 3.01893 25.8756 0 23.9385C0.534957 23.9981 1.07673 24.0322 1.62702 24.0322C4.82143 24.0322 7.75858 22.9435 10.0909 21.1155C7.10948 21.061 4.59143 19.0915 3.72596 16.386C4.14166 16.4661 4.56758 16.5053 5.00713 16.5053C5.62898 16.5053 6.23208 16.4218 6.80281 16.2617C3.68848 15.6364 1.33569 12.8833 1.33569 9.57982C1.33569 9.55086 1.33569 9.5236 1.33569 9.49464C2.25738 10.0057 3.30685 10.3107 4.42447 10.3465C2.59642 9.12494 1.39361 7.03792 1.39361 4.6698C1.39361 3.42441 1.72924 2.25057 2.31701 1.24539C5.67668 5.36831 10.7008 8.08569 16.3639 8.3668C16.2497 7.86762 16.1867 7.34799 16.1867 6.81474C16.1867 3.0513 19.238 0 23.0049 0C24.959 0 26.7325 0.826287 27.9779 2.15346C29.5283 1.84679 30.99 1.27776 32.307 0.49918C31.7959 2.09213 30.7157 3.42781 29.3102 4.26943C30.6902 4.10418 32.002 3.73788 33.2236 3.19782C32.3087 4.56588 31.1536 5.76357 29.8213 6.72274Z" fill="white"/>
</svg>
