<svg width="38" height="43" viewBox="0 0 38 43" fill="none" xmlns="http://www.w3.org/2000/svg">
<g clip-path="url(#clip0_391_4082)">
<path d="M18.9992 35.4117C12.4741 35.4117 7.17529 30.1129 7.17529 23.5878C7.17529 17.2444 17.8789 6.04123 18.3331 5.57191L18.8932 4.98147L19.4685 5.55677C19.9378 6.02609 30.8231 17.2293 30.8231 23.5727C30.8231 30.1129 25.5243 35.4117 18.9992 35.4117ZM18.9084 7.26752C17.9697 8.28187 16.0016 10.4771 14.0486 13.0508C10.5817 17.6229 8.74979 21.2564 8.74979 23.5727C8.74979 29.2197 13.3522 33.8221 18.9992 33.8221C24.6462 33.8221 29.2486 29.2197 29.2486 23.5727C29.2486 21.2564 27.3864 17.6229 23.859 13.0508C21.8757 10.4922 19.8621 8.28187 18.9084 7.26752Z" fill="url(#paint0_linear_391_4082)"/>
<path d="M19.0004 39.1965C10.386 39.1965 3.3916 32.187 3.3916 23.5878C3.3916 15.1703 15.1398 3.42205 15.6394 2.93758C15.9422 2.63479 16.4569 2.63479 16.7597 2.93758C17.0625 3.24037 17.0625 3.75511 16.7597 4.0579C16.6386 4.17902 4.98124 15.8364 4.98124 23.5878C4.98124 31.324 11.2793 37.622 19.0155 37.622C26.7518 37.622 33.0498 31.324 33.0498 23.5878C33.0498 20.4085 30.9908 16.0181 27.0848 10.8555C24.0872 6.90412 21.0745 3.90651 21.0442 3.87623C20.7263 3.57344 20.7263 3.07384 21.0442 2.75591C21.347 2.43798 21.8466 2.43798 22.1645 2.75591C22.6793 3.25551 34.6394 15.1551 34.6394 23.5878C34.6091 32.187 27.6147 39.1965 19.0004 39.1965Z" fill="url(#paint1_linear_391_4082)"/>
<path d="M19 42.9812C8.52351 42.9812 0 34.4577 0 23.9812C0 19.6513 2.18008 14.3222 6.46454 8.16047C9.62869 3.61864 12.7323 0.378795 12.8685 0.24254C13.1713 -0.0753883 13.6709 -0.0753883 13.9888 0.227401C14.3068 0.530189 14.3068 1.02979 14.004 1.34772C13.9737 1.378 10.8398 4.64812 7.75139 9.08397C3.70916 14.8824 1.5745 20.0298 1.5745 23.9812C1.5745 33.5796 9.38645 41.4067 19 41.4067C28.6135 41.4067 36.4255 33.5947 36.4255 23.9812C36.4255 20.0298 34.2757 14.8824 30.2032 9.08397C27.0845 4.64812 23.9203 1.378 23.89 1.34772C23.5873 1.02979 23.5873 0.530189 23.9052 0.227401C24.2231 -0.0753883 24.7227 -0.0753883 25.0255 0.24254C25.5554 0.78756 38 13.7166 38 23.9812C38 34.4577 29.4765 42.9812 19 42.9812Z" fill="url(#paint2_linear_391_4082)"/>
</g>
<defs>
<linearGradient id="paint0_linear_391_4082" x1="18.9992" y1="35.4099" x2="18.9992" y2="4.97961" gradientUnits="userSpaceOnUse">
<stop stop-color="#05AAC5"/>
<stop offset="1" stop-color="#71E0EC"/>
</linearGradient>
<linearGradient id="paint1_linear_391_4082" x1="19.0155" y1="39.1947" x2="19.0155" y2="2.51562" gradientUnits="userSpaceOnUse">
<stop stop-color="#05AAC5"/>
<stop offset="1" stop-color="#71E0EC"/>
</linearGradient>
<linearGradient id="paint2_linear_391_4082" x1="19" y1="42.9793" x2="19" y2="0.000309479" gradientUnits="userSpaceOnUse">
<stop stop-color="#05AAC5"/>
<stop offset="1" stop-color="#71E0EC"/>
</linearGradient>
<clipPath id="clip0_391_4082">
<rect width="38" height="42.9809" fill="white"/>
</clipPath>
</defs>
</svg>
