<svg width="42" height="33" viewBox="0 0 42 33" fill="none" xmlns="http://www.w3.org/2000/svg">
<g clip-path="url(#clip0_391_4078)">
<path d="M6.82094 25.1236C7.0744 24.8702 7.4229 24.7223 7.79252 24.7223H41.3123C41.9248 24.7223 42.231 25.4616 41.7981 25.8946L35.1765 32.5161C34.923 32.7696 34.5745 32.9175 34.2049 32.9175H0.685158C0.0726359 32.9175 -0.233625 32.1782 0.199365 31.7452L6.82094 25.1236Z" fill="url(#paint0_linear_391_4078)"/>
<path d="M6.82143 0.401948C7.08544 0.148491 7.43395 0.000640869 7.79301 0.000640869H41.3128C41.9253 0.000640869 42.2315 0.739892 41.7985 1.17288L35.177 7.79445C34.9235 8.04791 34.575 8.19576 34.2054 8.19576H0.685646C0.0731242 8.19576 -0.233137 7.45651 0.199853 7.02352L6.82143 0.401948Z" fill="url(#paint1_linear_391_4078)"/>
<path d="M35.1765 12.683C34.923 12.4296 34.5745 12.2817 34.2049 12.2817H0.685158C0.0726359 12.2817 -0.233625 13.021 0.199365 13.454L6.82094 20.0755C7.0744 20.329 7.4229 20.4769 7.79252 20.4769H41.3123C41.9248 20.4769 42.231 19.7376 41.7981 19.3046L35.1765 12.683Z" fill="url(#paint2_linear_391_4078)"/>
</g>
<defs>
<linearGradient id="paint0_linear_391_4078" x1="38.1102" y1="-3.95587" x2="14.9118" y2="40.4783" gradientUnits="userSpaceOnUse">
<stop stop-color="#00FFA3"/>
<stop offset="1" stop-color="#DC1FFF"/>
</linearGradient>
<linearGradient id="paint1_linear_391_4078" x1="27.9671" y1="-9.2507" x2="4.76874" y2="35.1834" gradientUnits="userSpaceOnUse">
<stop stop-color="#00FFA3"/>
<stop offset="1" stop-color="#DC1FFF"/>
</linearGradient>
<linearGradient id="paint2_linear_391_4078" x1="33.0061" y1="-6.62069" x2="9.80774" y2="37.8134" gradientUnits="userSpaceOnUse">
<stop stop-color="#00FFA3"/>
<stop offset="1" stop-color="#DC1FFF"/>
</linearGradient>
<clipPath id="clip0_391_4078">
<rect width="42" height="32.9178" fill="white"/>
</clipPath>
</defs>
</svg>
